:FULLY-SPECIFIED
:FORCE-ALL-JOINTS-BE-3DOF
:DEGREES
2141
root -2.57591 15.2132 -0.152963 -176.713 6.90165 -175.409
lfemur -55.0028 13.3828 -25.1608
ltibia 53.9072 -0 0
lfoot 0.806453 22.6492 0.021899
ltoes 4.00888 -0 0
rfemur 0.279735 -0.336533 22.9749
rtibia 67.0485 -0 0
rfoot 7.72458 17.818 0.461232
rtoes -22.5034 0 0
lowerback 10.3922 0.108872 -1.32991
upperback -1.33432 0.283238 3.11218
thorax -7.27915 0.297462 3.9864
lowerneck -5.17883 0.438124 -4.287
upperneck 4.71139 0.799706 2.25965
head 2.38484 0.395445 1.51008
lclavicle 1.36292e-014 -2.00773e-014 0
lhumerus 51.3887 2.19065 102.54
lradius 17.0942 -0 0
lwrist -46.3181 0 0
lhand -32.6548 39.9935 0.00282935
lfingers 7.12502 -0 0
lthumb -5.88088 69.8939 0.00297702
rclavicle 1.36292e-014 -2.00773e-014 0
rhumerus -60.6871 19.3572 -93.441
rradius 109.791 -0 0
rwrist -70.4046 0 0
rhand -15.2578 -32.7678 0.0474895
rfingers 7.12502 -0 0
rthumb 10.916 -62.4644 0.0450204
2142
root -2.56886 15.2093 -0.443952 -176.914 6.52415 -175.652
lfemur -54.2242 13.249 -25.35
ltibia 53.9652 -0 0
lfoot 0.530595 23.1466 0.010863
ltoes 4.79124 -0 0
rfemur -0.396682 -0.436511 22.5232
rtibia 67.8843 -0 0
rfoot 8.79244 18.2844 0.197416
rtoes -21.8124 0 0
lowerback 10.4248 0.0416313 -1.6329
upperback -1.26845 0.14501 3.08668
thorax -7.21857 0.238531 4.15939
lowerneck -5.2407 0.427779 -4.3363
upperneck 4.72257 0.787494 2.237
head 2.39477 0.385629 1.50685
lclavicle 1.36292e-014 -2.00773e-014 0
lhumerus 51.8603 2.27227 103.043
lradius 15.5349 -0 0
lwrist -46.4374 0 0
lhand -32.6791 40.0245 0.000119101
lfingers 7.12502 -0 0
lthumb -5.90438 69.9226 0.000190054
rclavicle 1.36292e-014 -2.00773e-014 0
rhumerus -62.0088 18.3794 -93.5038
rradius 109.606 -0 0
rwrist -70.4573 0 0
rhand -15.3844 -33.0666 0.0196059
rfingers 7.12502 -0 0
rthumb 10.7941 -62.7713 0.0179515
2143
root -2.5618 15.2055 -0.734941 902.871 6.12727 184.092
lfemur -53.4469 13.0892 -25.5282
ltibia 54.0159 0 0
lfoot 0.18855 23.5751 0
ltoes 5.22427 0 0
rfemur -1.33383 -0.556961 22.1025
rtibia 68.7636 0 0
rfoot 9.54346 18.4854 0
rtoes -21.136 0 0
lowerback 10.4867 -0.0204328 -1.93176
upperback -1.20673 0.0137355 3.05488
thorax -7.17732 0.182604 4.32251
lowerneck -5.29888 0.402811 -4.38228
upperneck 4.77636 0.75439 2.22752
head 2.41728 0.365493 1.50544
lclavicle 1.36292e-014 -2.00773e-014 0
lhumerus 52.259 2.19995 103.314
lradius 14.3467 0 0
lwrist -46.2747 0 0
lhand -32.7055 400.089 0
lfingers 7.12502 0 0
lthumb -5.92989 -290.014 0
rclavicle 1.36292e-014 -2.00773e-014 0
rhumerus -62.9357 17.5814 -93.5162
rradius 109.652 0 0
rwrist -70.5012 0 0
rhand -15.3814 -393.275 0
rfingers 7.12502 0 0
rthumb 10.7969 297.023 0
2144
root -2.53873 15.2127 -0.972574 -177.36 5.70473 -176.19
lfemur -52.645 12.8894 -25.7175
ltibia 54.103 -0 0
lfoot -0.229566 23.9439 -0.0101186
ltoes 5.313 -0 0
rfemur -2.64139 -0.718469 21.724
rtibia 69.8086 -0 0
rfoot 9.94572 18.4096 -0.117514
rtoes -20.4422 0 0
lowerback 10.5875 -0.0780247 -2.23809
upperback -1.14412 -0.114217 3.01413
thorax -7.15497 0.128122 4.48046
lowerneck -5.35519 0.362851 -4.42357
upperneck 4.86589 0.70021 2.23189
head 2.44994 0.335343 1.50642
lclavicle -1.78906e-015 -2.0276e-014 0
lhumerus 52.6052 1.97205 103.35
lradius 13.4638 -0 0
lwrist -45.8454 0 0
lhand -32.7304 40.1926 0.00197381
lfingers 7.12502 -0 0
lthumb -5.9539 70.0895 0.00188825
rclavicle -1.78906e-015 -2.0276e-014 0
rhumerus -63.5156 16.9541 -93.5002
rradius 109.974 -0 0
rwrist -70.5733 0 0
rhand -15.2203 -33.4007 -0.0124979
rfingers 7.12502 -0 0
rthumb 10.9518 -63.0869 -0.00969757
2145
root -2.51567 15.2198 -1.21021 -177.609 5.25014 -176.509
lfemur -51.7905 12.6415 -25.9378
ltibia 54.2686 -0 0
lfoot -0.726312 24.2691 -0.0186276
ltoes 5.10135 -0 0
rfemur -4.38529 -0.936162 21.394
rtibia 71.1159 -0 0
rfoot 10.0113 18.0763 -0.156608
rtoes -19.6972 0 0
lowerback 10.7318 -0.132071 -2.56308
upperback -1.0757 -0.242758 2.96269
thorax -7.14876 0.0733872 4.6387
lowerneck -5.41149 0.308343 -4.46001
upperneck 4.98049 0.625916 2.24944
head 2.48933 0.29596 1.51017
lclavicle -1.78906e-015 -2.0276e-014 0
lhumerus 52.9134 1.60088 103.173
lradius 12.7933 -0 0
lwrist -45.1912 0 0
lhand -32.748 40.3353 0.00515152
lfingers 7.12502 -0 0
lthumb -5.97093 70.2327 0.00494821
rclavicle -1.78906e-015 -2.0276e-014 0
rhumerus -63.8238 16.4686 -93.4701
rradius 110.571 -0 0
rwrist -70.6974 0 0
rhand -14.8927 -33.4639 -0.0204922
rfingers 7.12502 -0 0
rthumb 11.267 -63.1203 -0.0136749
2146
root -2.4926 15.227 -1.44784 -177.874 4.76421 -176.861
lfemur -50.8859 12.3517 -26.1848
ltibia 54.5045 -0 0
lfoot -1.29513 24.5535 -0.0253341
ltoes 4.61442 -0 0
rfemur -6.51804 -1.20462 21.1113
rtibia 72.6482 -0 0
rfoot 9.77526 17.5099 -0.127428
rtoes -18.9053 0 0
lowerback 10.9146 -0.182251 -2.90462
upperback -1.00237 -0.371454 2.9016
thorax -7.15716 0.0186555 4.79696
lowerneck -5.46748 0.239895 -4.49263
upperneck 5.11873 0.532267 2.27907
head 2.53517 0.247607 1.51649
lclavicle -1.78906e-015 -2.0276e-014 0
lhumerus 53.1773 1.09859 102.802
lradius 12.3283 -0 0
lwrist -44.3267 0 0
lhand -32.7576 40.5121 0.00935633
lfingers 7.12502 -0 0
lthumb -5.98026 70.4105 0.00900874
rclavicle -1.78906e-015 -2.0276e-014 0
rhumerus -63.8745 16.1144 -93.4272
rradius 111.405 -0 0
rwrist -70.8588 0 0
rhand -14.4166 -33.4715 -0.024539
rfingers 7.12502 -0 0
rthumb 11.7249 -63.0857 -0.0128493
2147
root -2.46954 15.2342 -1.68547 -178.151 4.24766 -177.24
lfemur -49.934 12.0263 -26.4542
ltibia 54.8024 -0 0
lfoot -1.92945 24.8002 -0.0302147
ltoes 3.87729 -0 0
rfemur -8.99238 -1.51722 20.8747
rtibia 74.3681 -0 0
rfoot 9.27206 16.7338 -0.0432094
rtoes -18.0706 0 0
lowerback 11.1312 -0.228278 -3.26053
upperback -0.925014 -0.499869 2.83194
thorax -7.17867 -0.035826 4.955
lowerneck -5.52286 0.158117 -4.52247
upperneck 5.27919 0.420016 2.31964
head 2.5872 0.190547 1.52515
lclavicle -1.78906e-015 -2.0276e-014 0
lhumerus 53.3919 0.476646 102.255
lradius 12.0615 -0 0
lwrist -43.2669 0 0
lhand -32.7586 40.7183 0.0143907
lfingers 7.12502 -0 0
lthumb -5.98117 70.6181 0.0138784
rclavicle -1.78906e-015 -2.0276e-014 0
rhumerus -63.6814 15.8805 -93.3712
rradius 112.436 -0 0
rwrist -71.0426 0 0
rhand -13.8104 -33.4304 -0.0255545
rfingers 7.12502 -0 0
rthumb 12.308 -62.9915 -0.00853515
2148
root -2.44647 15.2413 -1.92311 -178.439 3.70127 -177.642
lfemur -48.9376 11.6713 -26.7416
ltibia 55.1539 -0 0
lfoot -2.62273 25.0119 -0.0333757
ltoes 2.91505 -0 0
rfemur -11.7612 -1.86638 20.6826
rtibia 76.2381 -0 0
rfoot 8.53586 15.7709 0.0809746
rtoes -17.1974 0 0
lowerback 11.3766 -0.269916 -3.62866
upperback -0.844547 -0.627575 2.75478
thorax -7.21177 -0.0898186 5.11256
lowerneck -5.57735 0.0636144 -4.55055
upperneck 5.46045 0.289909 2.37002
head 2.64515 0.125044 1.53593
lclavicle -1.78906e-015 -2.0276e-014 0
lhumerus 53.5525 -0.254223 101.551
lradius 11.9861 -0 0
lwrist -42.0266 0 0
lhand -32.75 40.9489 0.020038
lfingers 7.12502 -0 0
lthumb -5.97293 70.8506 0.0193472
rclavicle -1.78906e-015 -2.0276e-014 0
rhumerus -63.2576 15.7559 -93.2995
rradius 113.628 -0 0
rwrist -71.2341 0 0
rhand -13.0922 -33.3476 -0.0246469
rfingers 7.12502 -0 0
rthumb 12.9989 -62.8461 -0.00224725
2149
root -2.42341 15.2485 -2.16074 -178.736 3.12586 -178.063
lfemur -47.8995 11.2927 -27.0423
ltibia 55.5507 -0 0
lfoot -3.36841 25.1917 -0.0350159
ltoes 1.7528 -0 0
rfemur -14.7775 -2.24391 20.5328
rtibia 78.2208 -0 0
rfoot 7.60086 14.6436 0.229314
rtoes -16.2899 0 0
lowerback 11.6461 -0.306988 -4.00683
upperback -0.761873 -0.754146 2.67119
thorax -7.25494 -0.143092 5.26937
lowerneck -5.63065 -0.0430075 -4.57791
upperneck 5.66107 0.14269 2.42905
head 2.70874 0.051358 1.54859
lclavicle -1.78906e-015 -2.0276e-014 0
lhumerus 53.6548 -1.084 100.708
lradius 12.0948 -0 0
lwrist -40.6204 0 0
lhand -32.7312 41.1991 0.0260645
lfingers 7.12502 -0 0
lthumb -5.95482 71.103 0.025188
rclavicle -1.78906e-015 -2.0276e-014 0
rhumerus -62.6158 15.7294 -93.2085
rradius 114.94 -0 0
rwrist -71.4185 0 0
rhand -12.2802 -33.23 -0.0229713
rfingers 7.12502 -0 0
rthumb 13.7801 -62.6581 0.00446977
2150
root -2.40034 15.2557 -2.39837 -179.04 2.52233 -178.498
lfemur -46.8225 10.8962 -27.3517
ltibia 55.9847 -0 0
lfoot -4.15995 25.3424 -0.0353939
ltoes 0.415606 -0 0
rfemur -17.9943 -2.64128 20.4222
rtibia 80.2789 -0 0
rfoot 6.50159 13.3749 0.38623
rtoes -15.3523 0 0
lowerback 11.9348 -0.339387 -4.39283
upperback -0.677906 -0.87916 2.58224
thorax -7.30665 -0.195427 5.42517
lowerneck -5.68247 -0.161146 -4.60558
upperneck 5.87961 -0.0208957 2.49558
head 2.77772 -0.030247 1.56291
lclavicle -1.78906e-015 -2.0276e-014 0
lhumerus 53.6944 -2.00334 99.7467
lradius 12.3808 -0 0
lwrist -39.0632 0 0
lhand -32.7015 41.4639 0.032222
lfingers 7.12502 -0 0
lthumb -5.92613 71.3705 0.03116
rclavicle -1.78906e-015 -2.0276e-014 0
rhumerus -61.7683 15.7896 -93.0934
rradius 116.336 -0 0
rwrist -71.581 0 0
rhand -11.3927 -33.0846 -0.0216067
rfingers 7.12502 -0 0
rthumb 14.6339 -62.4358 0.0101866
2151
root -2.37727 15.2628 -2.63601 -179.348 1.89164 -178.943
lfemur -45.7095 10.4875 -27.6648
ltibia 56.4474 -0 0
lfoot -4.99081 25.467 -0.034798
ltoes -1.07143 0 0
rfemur -21.3649 -3.04994 20.346
rtibia 82.3748 -0 0
rfoot 5.27308 11.988 0.537227
rtoes -14.3888 0 0
lowerback 12.2377 -0.367085 -4.78446
upperback -0.593569 -1.0022 2.48904
thorax -7.3654 -0.246611 5.5797
lowerneck -5.73251 -0.2902 -4.63462
upperneck 6.11466 -0.200099 2.56846
head 2.8518 -0.119509 1.57867
lclavicle -1.78906e-015 -2.0276e-014 0
lhumerus 53.6664 -3.00358 98.6869
lradius 12.8368 -0 0
lwrist -37.3699 0 0
lhand -32.6601 41.7387 0.0382517
lfingers 7.12502 -0 0
lthumb -5.88614 71.648 0.0370116
rclavicle -1.78906e-015 -2.0276e-014 0
rhumerus -60.7273 15.9246 -92.949
rradius 117.776 -0 0
rwrist -71.7067 0 0
rhand -10.4478 -32.9183 -0.0214538
rfingers 7.12502 -0 0
rthumb 15.543 -62.1879 0.0137087
2152
root -2.35421 15.27 -2.87364 -179.659 1.23481 -179.394
lfemur -44.5635 10.0719 -27.9764
ltibia 56.9306 -0 0
lfoot -5.85443 25.5683 -0.0335195
ltoes -2.68321 0 0
rfemur -24.8421 -3.46171 20.2984
rtibia 84.4712 -0 0
rfoot 3.95097 10.5068 0.669614
rtoes -13.4035 0 0
lowerback 12.55 -0.390138 -5.17951
upperback -0.509789 -1.12286 2.39266
thorax -7.42965 -0.296441 5.73268
lowerneck -5.78046 -0.429569 -4.66606
upperneck 6.36478 -0.394163 2.64653
head 2.93072 -0.216164 1.59564
lclavicle -1.78906e-015 -2.0276e-014 0
lhumerus 53.5655 -4.07666 97.5489
lradius 13.4558 -0 0
lwrist -35.5551 0 0
lhand -32.6062 42.0184 0.0438875
lfingers 7.12502 -0 0
lthumb -5.83414 71.9307 0.0424843
rclavicle -1.78906e-015 -2.0276e-014 0
rhumerus -59.5045 16.1223 -92.7694
rradius 119.221 -0 0
rwrist -71.7809 0 0
rhand -9.46371 -32.7382 -0.023156
rfingers 7.12502 -0 0
rthumb 16.4898 -61.9227 0.0141702
